# xmcd
#
# Track frame offsets: 
#        237
#        15729
#        28894
#        39936
#        60900
#        75434
#        83796
#        94448
#        109707
#        122060
#        135309
#
# Disc length: 2012 seconds
#
# Revision: 2
# Processed by: cddbd v1.5.1PL0 Copyright (c) Steve Scherf et al.
# Submitted via: ExactAudioCopy v0.95a5
#
DISCID=7e07d90b
DTITLE=Tom T. Hall - World Class Country
DYEAR=1983
DGENRE=Country
TTITLE0=Who Do You Pray For
TTITLE1=Say Something Nice About Me
TTITLE2=I Expect The Tears To Come
TTITLE3=Poor Me, Pour Me Another Drink
TTITLE4=Let's Do This Again Sometime
TTITLE5=I Love
TTITLE6=The Year That Clayton Delaney Died
TTITLE7=Counting Sorrys
TTITLE8=Red Hot Memories (Ice Cold Beer)
TTITLE9=I Can't Drink
TTITLE10=The All New Me
EXTD=(c)1983 Range Records UK/Licensed from Magboe Prod. USA\nKatalog:
EXTD=RANGE 7001\n
EXTT0=
EXTT1=
EXTT2=
EXTT3=
EXTT4=
EXTT5=
EXTT6=
EXTT7=
EXTT8=
EXTT9=
EXTT10=
PLAYORDER=
